# xmcd
#
# Track frame offsets:
#	150
#	4650
#	22395
#	39283
#	60656
#	62853
#	78051
#	79021
#	97883
#	114833
#	131030
#	146198
#	164185
#	180873
#	195423
#	210348
#	225986
#	242334
#	258421
#	273300
#	292950
#	309524
#
# Disc length: 4389 seconds
# Revision: 2
# Processed by: cddbd v1.5.2PL0 Copyright (c) Steve Scherf et al.
# Submitted via: dBpowerAMP V12.0
#
DISCID=1d112316
DTITLE=Rednex - Farm Out - Sex and Violins
DYEAR=2000
DGENRE=Country
TTITLE0=Intro Fresh Pigs And More
TTITLE1=The Spirit Of The Hawk (Radio Mix)
TTITLE2=The Way I Mate
TTITLE3=Hold Me For a While
TTITLE4=Boring
TTITLE5=Where You Gonna Go
TTITLE6=Animal In The Rain
TTITLE7=Ranger Jack
TTITLE8=Get The Truck Loaded
TTITLE9=The Devil Went Down To Georgia
TTITLE10=Is He Alive
TTITLE11=McKenzie Brothers II
TTITLE12=Bottleneck Bob 2000
TTITLE13=Cotton-Eye Joe
TTITLE14=Hittin` The Hay
TTITLE15=Riding Alone
TTITLE16=Mary Lou
TTITLE17=Old Pop In A Oak
TTITLE18=Fat Sally Lee
TTITLE19=Rolling Home
TTITLE20=Wild And Free
TTITLE21=Maggie Moonshire (Exd. Version)
EXTD=
EXTT0=
EXTT1=
EXTT2=
EXTT3=
EXTT4=
EXTT5=
EXTT6=
EXTT7=
EXTT8=
EXTT9=
EXTT10=
EXTT11=
EXTT12=
EXTT13=
EXTT14=
EXTT15=
EXTT16=
EXTT17=
EXTT18=
EXTT19=
EXTT20=
EXTT21=
PLAYORDER=
